# xmcd
#
# Track frame offsets: 
#        150
#        17089
#        33472
#        48219
#        65575
#        79786
#        96574
#        115812
#        129288
#        161507
#        170907
#
# Disc length: 2498 seconds
#
# Revision: 0
# Processed by: cddbd v1.5.2PL0 Copyright (c) Steve Scherf et al.
# Submitted via: ExactAudioCopyFreeDBPlugin 1.0
#
DISCID=8f09c00b
DTITLE=Ernst Molden - Haus des Meeres
DYEAR=2005
DGENRE=Neues Wienerlied
TTITLE0=Die flache Hand des Lebens
TTITLE1=Verrückter alter Sommer
TTITLE2=Landflucht
TTITLE3=Mann mit sieben Ecken
TTITLE4=Über die Mauer
TTITLE5=Mein Bruder verläßt das Land
TTITLE6=Der ganz ganz lange Zug
TTITLE7=Leopoldsberglbues
TTITLE8=Haus des meeres
TTITLE9=Hochzeitstag
TTITLE10=Männer unter meinen Freunden
EXTD=
EXTT0=
EXTT1=
EXTT2=
EXTT3=
EXTT4=
EXTT5=
EXTT6=
EXTT7=
EXTT8=
EXTT9=
EXTT10=
PLAYORDER=
